<mxfile host="app.diagrams.net" modified="2023-11-02T13:42:45.005Z" agent="Mozilla/5.0 (Windows NT 10.0; Win64; x64) AppleWebKit/537.36 (KHTML, like Gecko) Chrome/118.0.0.0 Safari/537.36" etag="jSuDWG4lJv61fWdvfyxx" version="22.0.8" type="google">
  <diagram name="Trang-1" id="DCPB1bLVOOIcnbUDWQPr">
    <mxGraphModel grid="1" page="1" gridSize="10" guides="1" tooltips="1" connect="1" arrows="1" fold="1" pageScale="1" pageWidth="827" pageHeight="1169" math="0" shadow="0">
      <root>
        <mxCell id="0" />
        <mxCell id="1" parent="0" />
        <mxCell id="lX437AgswNUN-MGmlYr3-1" value="3x3 Conv" style="rounded=1;whiteSpace=wrap;html=1;fillColor=#fff2cc;strokeColor=#d6b656;strokeWidth=2;fontStyle=1" vertex="1" parent="1">
          <mxGeometry x="300" y="250" width="100" height="30" as="geometry" />
        </mxCell>
        <mxCell id="lX437AgswNUN-MGmlYr3-3" value="" style="shape=flexArrow;endArrow=classic;html=1;rounded=0;fillColor=#eeeeee;strokeColor=#36393d;strokeWidth=2;fontStyle=1" edge="1" parent="1">
          <mxGeometry width="50" height="50" relative="1" as="geometry">
            <mxPoint x="349.71" y="290" as="sourcePoint" />
            <mxPoint x="349.71" y="330" as="targetPoint" />
          </mxGeometry>
        </mxCell>
        <mxCell id="lX437AgswNUN-MGmlYr3-4" value="BN" style="rounded=1;whiteSpace=wrap;html=1;fillColor=#fff2cc;strokeColor=#d6b656;strokeWidth=2;fontStyle=1" vertex="1" parent="1">
          <mxGeometry x="300" y="330" width="100" height="30" as="geometry" />
        </mxCell>
        <mxCell id="lX437AgswNUN-MGmlYr3-6" value="ReLU" style="rounded=1;whiteSpace=wrap;html=1;fillColor=#fff2cc;strokeColor=#d6b656;strokeWidth=2;fontStyle=1" vertex="1" parent="1">
          <mxGeometry x="300" y="410" width="100" height="30" as="geometry" />
        </mxCell>
        <mxCell id="lX437AgswNUN-MGmlYr3-18" value="" style="shape=flexArrow;endArrow=classic;html=1;rounded=0;fillColor=#eeeeee;strokeColor=#36393d;strokeWidth=2;fontStyle=1" edge="1" parent="1">
          <mxGeometry width="50" height="50" relative="1" as="geometry">
            <mxPoint x="349.71" y="210" as="sourcePoint" />
            <mxPoint x="349.71" y="250" as="targetPoint" />
          </mxGeometry>
        </mxCell>
        <mxCell id="lX437AgswNUN-MGmlYr3-19" value="" style="shape=flexArrow;endArrow=classic;html=1;rounded=0;fillColor=#eeeeee;strokeColor=#36393d;strokeWidth=2;fontStyle=1" edge="1" parent="1">
          <mxGeometry width="50" height="50" relative="1" as="geometry">
            <mxPoint x="349.71000000000004" y="370" as="sourcePoint" />
            <mxPoint x="349.71000000000004" y="410" as="targetPoint" />
          </mxGeometry>
        </mxCell>
        <mxCell id="lX437AgswNUN-MGmlYr3-26" value="Convolutional&lt;br&gt;Block" style="rounded=1;whiteSpace=wrap;html=1;fillColor=#fff2cc;strokeColor=#d6b656;strokeWidth=2;fontStyle=1" vertex="1" parent="1">
          <mxGeometry x="580" y="270" width="100" height="30" as="geometry" />
        </mxCell>
        <mxCell id="lX437AgswNUN-MGmlYr3-30" value="" style="shape=flexArrow;endArrow=classic;html=1;rounded=0;fillColor=#eeeeee;strokeColor=#36393d;strokeWidth=2;fontStyle=1" edge="1" parent="1">
          <mxGeometry width="50" height="50" relative="1" as="geometry">
            <mxPoint x="629.71" y="210" as="sourcePoint" />
            <mxPoint x="630" y="260" as="targetPoint" />
          </mxGeometry>
        </mxCell>
        <mxCell id="lX437AgswNUN-MGmlYr3-32" value="" style="shape=flexArrow;endArrow=classic;html=1;rounded=0;fillColor=#eeeeee;strokeColor=#36393d;strokeWidth=2;fontStyle=1" edge="1" parent="1">
          <mxGeometry width="50" height="50" relative="1" as="geometry">
            <mxPoint x="600" y="220" as="sourcePoint" />
            <mxPoint x="610" y="460" as="targetPoint" />
            <Array as="points">
              <mxPoint x="520" y="220" />
              <mxPoint x="520" y="460" />
            </Array>
          </mxGeometry>
        </mxCell>
        <mxCell id="lX437AgswNUN-MGmlYr3-33" value="" style="shape=flexArrow;endArrow=classic;html=1;rounded=0;fillColor=#eeeeee;strokeColor=#36393d;strokeWidth=2;fontStyle=1" edge="1" parent="1">
          <mxGeometry width="50" height="50" relative="1" as="geometry">
            <mxPoint x="349.71000000000004" y="450" as="sourcePoint" />
            <mxPoint x="349.71000000000004" y="490" as="targetPoint" />
          </mxGeometry>
        </mxCell>
        <mxCell id="lX437AgswNUN-MGmlYr3-34" value="+" style="ellipse;whiteSpace=wrap;html=1;aspect=fixed;fillColor=#eeeeee;strokeColor=#36393d;strokeWidth=2;fontStyle=1" vertex="1" parent="1">
          <mxGeometry x="620" y="450" width="20" height="20" as="geometry" />
        </mxCell>
        <mxCell id="lX437AgswNUN-MGmlYr3-35" value="" style="shape=flexArrow;endArrow=classic;html=1;rounded=0;fillColor=#eeeeee;strokeColor=#36393d;strokeWidth=2;fontStyle=1" edge="1" parent="1">
          <mxGeometry width="50" height="50" relative="1" as="geometry">
            <mxPoint x="629.71" y="480" as="sourcePoint" />
            <mxPoint x="629.71" y="520" as="targetPoint" />
          </mxGeometry>
        </mxCell>
        <mxCell id="lX437AgswNUN-MGmlYr3-36" value="BN" style="rounded=1;whiteSpace=wrap;html=1;fillColor=#fff2cc;strokeColor=#d6b656;strokeWidth=2;fontStyle=1" vertex="1" parent="1">
          <mxGeometry x="470" y="360" width="100" height="30" as="geometry" />
        </mxCell>
        <mxCell id="lX437AgswNUN-MGmlYr3-38" value="1x1 Conv" style="rounded=1;whiteSpace=wrap;html=1;fillColor=#fff2cc;strokeColor=#d6b656;strokeWidth=2;fontStyle=1" vertex="1" parent="1">
          <mxGeometry x="470" y="300" width="100" height="30" as="geometry" />
        </mxCell>
        <mxCell id="lX437AgswNUN-MGmlYr3-41" value="A. Convolutional Block" style="text;html=1;strokeColor=none;fillColor=none;align=center;verticalAlign=middle;whiteSpace=wrap;rounded=0;fontStyle=1" vertex="1" parent="1">
          <mxGeometry x="275" y="530" width="150" height="30" as="geometry" />
        </mxCell>
        <mxCell id="lX437AgswNUN-MGmlYr3-42" value="B. Residual Block" style="text;html=1;strokeColor=none;fillColor=none;align=center;verticalAlign=middle;whiteSpace=wrap;rounded=0;fontStyle=1" vertex="1" parent="1">
          <mxGeometry x="550" y="530" width="150" height="30" as="geometry" />
        </mxCell>
        <mxCell id="oGO8_a27JNAEtktwbq16-1" value="Convolutional&lt;br&gt;Block" style="rounded=1;whiteSpace=wrap;html=1;fillColor=#fff2cc;strokeColor=#d6b656;strokeWidth=2;fontStyle=1" vertex="1" parent="1">
          <mxGeometry x="580" y="360" width="100" height="30" as="geometry" />
        </mxCell>
        <mxCell id="oGO8_a27JNAEtktwbq16-2" value="" style="shape=flexArrow;endArrow=classic;html=1;rounded=0;fillColor=#eeeeee;strokeColor=#36393d;strokeWidth=2;fontStyle=1" edge="1" parent="1">
          <mxGeometry width="50" height="50" relative="1" as="geometry">
            <mxPoint x="629.66" y="405" as="sourcePoint" />
            <mxPoint x="629.66" y="445" as="targetPoint" />
          </mxGeometry>
        </mxCell>
        <mxCell id="oGO8_a27JNAEtktwbq16-3" value="" style="shape=flexArrow;endArrow=classic;html=1;rounded=0;fillColor=#eeeeee;strokeColor=#36393d;strokeWidth=2;fontStyle=1;entryX=0.5;entryY=0;entryDx=0;entryDy=0;" edge="1" parent="1">
          <mxGeometry width="50" height="50" relative="1" as="geometry">
            <mxPoint x="629.66" y="310" as="sourcePoint" />
            <mxPoint x="629.66" y="359.9999999999999" as="targetPoint" />
          </mxGeometry>
        </mxCell>
      </root>
    </mxGraphModel>
  </diagram>
</mxfile>
